HIERARCHY
ROOT Hips
{
	OFFSET 0.000000 0.000000 0.000000 
	CHANNELS 6 Xposition Yposition Zposition Zrotation Yrotation Xrotation
	JOINT LeftUpLeg
	{
		OFFSET 1.363060 -1.794630 0.839290 
		CHANNELS 3 Zrotation Yrotation Xrotation
		JOINT LeftLeg
		{
			OFFSET 2.448110 -6.726130 0.000000 
			CHANNELS 3 Zrotation Yrotation Xrotation
			JOINT LeftFoot
			{
				OFFSET 2.562200 -7.039590 0.000000 
				CHANNELS 3 Zrotation Yrotation Xrotation
				JOINT LeftToeBase
				{
					OFFSET 0.157640 -0.433110 2.322550 
					CHANNELS 3 Zrotation Yrotation Xrotation
					End Site
					{
						OFFSET 0.000000 0.000000 0.000000 
					}
				}
			}
		}
	}
	JOINT RightUpLeg
	{
		OFFSET -1.305520 -1.794630 0.839290 
		CHANNELS 3 Zrotation Yrotation Xrotation
		JOINT RightLeg
		{
			OFFSET -2.542530 -6.985550 0.000000 
			CHANNELS 3 Zrotation Yrotation Xrotation
			JOINT RightFoot
			{
				OFFSET -2.568260 -7.056230 0.000000 
				CHANNELS 3 Zrotation Yrotation Xrotation
				JOINT RightToeBase
				{
					OFFSET -0.164730 -0.452590 2.363150 
					CHANNELS 3 Zrotation Yrotation Xrotation
					End Site
					{
						OFFSET 0.000000 0.000000 0.000000 
					}
				}
			}
		}
	}
	JOINT Spine
	{
		OFFSET 0.028270 2.035590 -0.193380 
		CHANNELS 3 Zrotation Yrotation Xrotation
		JOINT Spine1
		{
			OFFSET 0.056720 2.048850 -0.042750 
			CHANNELS 3 Zrotation Yrotation Xrotation
			JOINT Neck1
			{
				OFFSET -0.054170 1.746240 0.172020 
				CHANNELS 3 Zrotation Yrotation Xrotation
				JOINT Head
				{
					OFFSET 0.104070 1.761360 -0.123970 
					CHANNELS 3 Zrotation Yrotation Xrotation
					End Site
					{
						OFFSET 0.000000 0.000000 0.000000 
					}
				}
			}
			JOINT LeftArm
			{
				OFFSET 3.362410 1.200890 -0.311210 
				CHANNELS 3 Zrotation Yrotation Xrotation
				JOINT LeftForeArm
				{
					OFFSET 4.983000 -0.000000 -0.000000 
					CHANNELS 3 Zrotation Yrotation Xrotation
					JOINT LeftHand
					{
						OFFSET 3.483560 -0.000000 -0.000000 
						CHANNELS 3 Zrotation Yrotation Xrotation
						JOINT LeftHandIndex1
						{
							OFFSET 0.715260 -0.000000 -0.000000 
							CHANNELS 3 Zrotation Yrotation Xrotation
							End Site
							{
								OFFSET 0.000000 0.000000 0.000000 
							}
						}
					}
				}
			}
			JOINT RightArm
			{
				OFFSET -3.136600 1.374050 -0.404650 
				CHANNELS 3 Zrotation Yrotation Xrotation
				JOINT RightForeArm
				{
					OFFSET -5.241900 -0.000000 -0.000000 
					CHANNELS 3 Zrotation Yrotation Xrotation
					JOINT RightHand
					{
						OFFSET -3.444170 -0.000000 -0.000000 
						CHANNELS 3 Zrotation Yrotation Xrotation
						JOINT RightHandIndex1
						{
							OFFSET -0.622530 -0.000000 -0.000000 
							CHANNELS 3 Zrotation Yrotation Xrotation
							End Site
							{
								OFFSET 0.000000 0.000000 0.000000 
							}
						}
					}
				}
			}
		}
	}
}
MOTION
Frames: 10
Frame Time: 0.041667
24.798275 17.842617 -34.248377 -4.007424 -0.603716 11.164324 -10.740798 -3.492730 -24.979695 2.480012 11.284866 32.702090 1.237002 -8.157787 -10.611130 2.366000 9.590100 27.659400 22.859631 10.102474 -18.525849 -2.651786 -9.990512 29.630788 -0.509609 -3.914673 -17.199035 -0.360300 -3.855900 10.671700 0.753012 -1.722234 -4.585296 -1.293493 -0.891389 3.926564 4.477566 -4.412137 8.075457 0.310400 -1.987500 3.093800 -95.934841 5.866108 44.681787 28.055924 -39.550392 -7.720825 -0.900211 2.110825 -14.657600 -7.125000 0.000000 0.000000 84.056398 -9.012310 64.206329 -105.779582 56.696359 -72.107592 1.379245 -0.191579 -20.764173 7.125000 0.000000 0.000000 
24.800722 17.846234 -34.247101 -4.025766 -0.639959 11.214087 -10.733085 -3.535980 -24.963988 2.466922 11.261432 32.636436 1.238638 -8.105263 -10.672951 2.347800 9.555800 27.549800 22.979944 7.672919 -19.665757 -2.682443 -10.036525 29.741693 -0.576955 -2.112255 -16.096537 -0.156600 -2.549500 7.026900 0.747329 -1.676690 -4.592735 -1.320717 -0.872278 3.924907 4.492630 -4.471111 8.067948 0.306600 -2.016300 3.084800 -95.905010 5.882348 44.764751 28.089094 -39.579011 -7.737813 -0.901752 2.112458 -14.671163 -7.125000 0.000000 0.000000 84.190088 -8.572706 64.380475 -106.506559 56.600600 -72.765599 1.353746 -0.184512 -21.530870 7.125000 0.000000 0.000000 
24.802317 17.845064 -34.246888 -4.053769 -0.689511 11.264159 -10.692104 -3.666800 -24.957549 2.467653 11.259798 32.635916 1.239266 -7.987385 -10.795042 2.410100 9.672600 27.922900 22.975455 7.560239 -19.812849 -2.684914 -10.037255 29.744666 -0.572346 -1.951783 -15.887145 -0.129600 -2.320100 6.391200 0.743265 -1.627567 -4.601714 -1.340263 -0.849276 3.923898 4.516031 -4.524278 8.075023 0.309600 -2.041700 3.083000 -95.881799 5.892013 44.855244 28.099308 -39.583473 -7.740320 -0.897132 2.110464 -14.637359 -7.125000 0.000000 0.000000 84.168236 -8.133314 64.721454 -106.995360 56.541582 -73.205496 1.333139 -0.183347 -22.477938 7.125000 0.000000 0.000000 
24.804552 17.844957 -34.248377 -4.050369 -0.771222 11.330366 -10.700078 -3.709030 -25.000649 2.467226 11.257379 32.633050 1.234631 -7.894940 -10.831003 2.429300 9.708200 28.036900 22.941034 7.568438 -19.902860 -2.688004 -10.040519 29.756532 -0.584227 -1.813502 -15.887912 -0.130200 -2.325900 6.407100 0.736459 -1.580156 -4.615628 -1.371406 -0.823545 3.912601 4.497261 -4.503817 8.010421 0.304500 -2.034100 3.051100 -95.913648 5.853573 44.907273 28.041412 -39.535371 -7.712945 -0.897239 2.113441 -14.665788 -7.125000 0.000000 0.000000 84.177152 -8.255029 65.180176 -108.748234 56.221015 -74.863647 1.329212 -0.158322 -21.761763 7.125000 0.000000 0.000000 
24.807211 17.842085 -34.247526 -4.032106 -0.790583 11.379370 -10.735702 -3.752077 -25.043331 2.473085 11.264346 32.660245 1.231318 -7.845612 -10.853188 2.441300 9.730300 28.107700 22.940076 7.436417 -19.924565 -2.682316 -10.031628 29.726319 -0.603571 -1.706886 -16.004666 -0.131100 -2.334200 6.430100 0.727262 -1.564270 -4.624694 -1.412541 -0.816261 3.917718 4.486480 -4.502162 7.989920 0.300000 -2.034400 3.037600 -95.936645 5.883545 44.881756 28.081414 -39.571093 -7.730156 -0.901590 2.111300 -14.633612 -7.125000 0.000000 0.000000 84.172553 -8.043487 66.245793 -108.997409 56.179525 -75.084140 1.352465 -0.172331 -19.797870 7.125000 0.000000 0.000000 
24.809339 17.840489 -34.247633 -4.025739 -0.846227 11.433491 -10.750158 -3.809676 -25.080009 2.479220 11.270827 32.686576 1.228488 -7.764151 -10.907889 2.458900 9.762700 28.211700 22.934165 7.181133 -20.060459 -2.678774 -10.024042 29.698629 -0.619276 -1.438875 -15.927177 -0.117000 -2.205400 6.073500 0.718520 -1.534598 -4.630553 -1.448759 -0.801500 3.924522 4.469766 -4.503872 7.939213 0.292800 -2.037400 3.010200 -95.955881 5.876369 44.884465 28.085366 -39.575039 -7.730330 -0.902626 2.109935 -14.621199 -7.125000 0.000000 0.000000 84.153559 -7.880299 67.066233 -109.586001 56.074730 -75.626251 1.358868 -0.175505 -18.575498 7.125000 0.000000 0.000000 
24.811041 17.838681 -34.247633 -4.019138 -0.901509 11.484144 -10.764391 -3.859473 -25.117052 2.485947 11.278484 32.716279 1.225279 -7.687499 -10.954166 2.477000 9.795900 28.318400 22.920268 7.082137 -20.122871 -2.673852 -10.014675 29.667473 -0.629675 -1.301137 -15.915129 -0.109600 -2.135000 5.878800 0.709940 -1.510971 -4.633776 -1.485837 -0.789345 3.935745 4.445243 -4.499214 7.874638 0.283500 -2.037900 2.976200 -95.980712 5.864742 44.870513 28.088218 -39.578183 -7.729839 -0.903602 2.108071 -14.611226 -7.125000 0.000000 0.000000 84.105621 -7.751685 67.990818 -110.066843 55.986457 -76.067927 1.368164 -0.182651 -17.090287 7.125000 0.000000 0.000000 
24.812318 17.837191 -34.247420 -4.015581 -0.951525 11.528337 -10.774463 -3.899292 -25.145839 2.490920 11.284102 32.738303 1.222121 -7.622150 -10.987584 2.494900 9.828700 28.423600 22.911886 6.993508 -20.179361 -2.670174 -10.007775 29.644057 -0.637969 -1.190168 -15.904912 -0.100800 -2.047700 5.637500 0.702138 -1.494350 -4.633741 -1.523215 -0.780349 3.951912 4.414518 -4.491186 7.798300 0.272400 -2.037300 2.936800 -96.009143 5.850499 44.841324 28.090714 -39.580965 -7.728891 -0.904651 2.105692 -14.602100 -7.125000 0.000000 0.000000 84.032645 -7.656169 68.987379 -110.412455 55.921829 -76.382727 1.379284 -0.194665 -15.408799 7.125000 0.000000 0.000000 
24.813062 17.836127 -34.246782 -4.018112 -0.992027 11.564372 -10.775934 -3.928311 -25.166237 2.494649 11.288382 32.754729 1.219976 -7.573709 -11.012829 2.513800 9.863000 28.534100 22.911695 6.928428 -20.222970 -2.667290 -10.002449 29.625720 -0.642814 -1.116070 -15.891621 -0.091600 -1.951800 5.372300 0.695999 -1.485378 -4.630106 -1.558582 -0.775156 3.973713 4.381472 -4.484189 7.726663 0.260500 -2.037300 2.898500 -96.036585 5.834372 44.807870 28.092914 -39.583450 -7.727751 -0.905031 2.103082 -14.595583 -7.125000 0.000000 0.000000 83.937291 -7.567344 70.016837 -110.625386 55.883215 -76.572356 1.389589 -0.210962 -13.751143 7.125000 0.000000 0.000000 
24.813062 17.835276 -34.245718 -4.024190 -1.023185 11.588594 -10.771476 -3.947680 -25.173246 2.496790 11.290669 32.763781 1.218949 -7.542921 -11.032022 2.532200 9.896300 28.641500 22.914443 6.893100 -20.249631 -2.665720 -9.999601 29.615839 -0.645969 -1.067394 -15.882131 -0.084900 -1.879700 5.173200 0.691261 -1.483548 -4.622797 -1.592391 -0.773296 3.998274 4.345280 -4.478284 7.656673 0.247400 -2.037700 2.859900 -96.063325 5.815019 44.773100 28.090422 -39.581936 -7.724896 -0.904896 2.100819 -14.593949 -7.125000 0.000000 0.000000 83.832796 -7.486327 71.039469 -110.812698 55.849513 -76.738805 1.396645 -0.224739 -12.126312 7.125000 0.000000 0.000000 
